<svg xmlns="http://www.w3.org/2000/svg" viewBox="0 0 1000 1000">
  <rect width="1000" height="1000" fill="white"/>
  <g fill="none" stroke="black" stroke-width="11" stroke-linecap="round" stroke-linejoin="round">
    <path d="M120 320c0-110 90-200 200-200h120"/>
    <path d="M880 320c0-110-90-200-200-200H560"/>
    <path d="M120 680c0 110 90 200 200 200h120"/>
    <path d="M880 680c0 110-90 200-200 200H560"/>
    <path d="M120 320c55 0 100-45 100-100s45-100 100-100"/>
    <path d="M880 320c-55 0-100-45-100-100s-45-100-100-100"/>
    <path d="M120 680c55 0 100 45 100 100s45 100 100 100"/>
    <path d="M880 680c-55 0-100 45-100 100s-45 100-100 100"/>
    <path d="M330 170c40 0 70 30 70 70s30 70 70 70"/>
    <path d="M670 170c-40 0-70 30-70 70s-30 70-70 70"/>
    <path d="M330 830c40 0 70-30 70-70s30-70 70-70"/>
    <path d="M670 830c-40 0-70-30-70-70s-30-70-70-70"/>
  </g>
</svg>
